<?xml version="1.0" standalone="no"?>
<!DOCTYPE svg PUBLIC "-//W3C//DTD SVG 20010904//EN"
 "http://www.w3.org/TR/2001/REC-SVG-20010904/DTD/svg10.dtd">
<svg version="1.0" xmlns="http://www.w3.org/2000/svg"
 width="512.000000pt" height="512.000000pt" viewBox="0 0 512.000000 512.000000"
 preserveAspectRatio="xMidYMid meet">

<g transform="translate(0.000000,512.000000) scale(0.100000,-0.100000)"
fill="#000000" stroke="none">
<path d="M2455 5103 c-113 -34 -214 -136 -245 -247 -20 -72 -9 -192 23 -259
42 -84 135 -162 230 -191 15 -5 17 -23 17 -185 l0 -180 -912 -3 -913 -3 -60
-28 c-81 -38 -120 -70 -160 -130 -69 -104 -66 -29 -63 -1503 l3 -1329 31 -65
c38 -80 101 -145 174 -179 54 -25 61 -26 320 -31 l265 -5 5 -363 5 -364 24
-19 c29 -23 52 -24 94 -3 18 9 307 175 642 369 336 193 621 358 635 366 21 12
181 15 970 19 l945 5 57 28 c75 37 134 98 172 177 l31 65 3 1325 c2 863 -1
1341 -8 1372 -25 120 -96 208 -208 261 l-67 32 -912 3 -913 3 0 180 c0 162 2
180 18 185 94 29 187 107 229 191 32 67 43 187 23 259 -53 190 -266 305 -455
247z m219 -180 c119 -82 114 -262 -9 -338 -135 -84 -305 12 -305 172 0 89 56
167 137 193 50 17 133 4 177 -27z m1763 -1055 c59 -14 127 -78 142 -133 15
-56 15 -2603 0 -2660 -14 -51 -51 -100 -92 -123 -30 -16 -102 -17 -987 -22
l-955 -5 -605 -351 -605 -351 -5 328 c-5 325 -5 329 -28 351 -22 23 -27 23
-330 28 -267 4 -311 7 -339 22 -38 21 -76 69 -92 117 -15 47 -16 2608 0 2666
14 51 83 119 135 133 58 15 3700 16 3761 0z"/>
<path d="M1521 3159 c-226 -38 -392 -271 -354 -495 32 -188 174 -331 361 -364
187 -34 381 71 466 250 29 61 31 72 31 180 0 109 -2 119 -32 183 -59 125 -172
213 -312 243 -74 15 -83 15 -160 3z m199 -184 c172 -88 204 -319 62 -447 -135
-122 -335 -89 -424 69 -132 234 122 500 362 378z"/>
<path d="M3447 3160 c-130 -22 -261 -123 -320 -247 -30 -64 -32 -74 -32 -183
0 -108 2 -119 31 -180 64 -135 187 -227 335 -252 229 -37 451 128 492 366 39
229 -128 457 -363 495 -72 12 -75 12 -143 1z m200 -186 c56 -27 91 -63 126
-128 33 -62 31 -174 -5 -242 -50 -95 -139 -148 -248 -147 -77 0 -122 17 -180
70 -142 127 -113 358 55 446 82 43 164 43 252 1z"/>
<path d="M1955 1775 c-31 -30 -32 -64 -4 -99 27 -34 180 -108 290 -140 276
-79 559 -55 816 69 95 46 133 81 133 122 0 31 -42 73 -73 73 -14 0 -71 -22
-128 -49 -157 -74 -253 -96 -429 -96 -176 0 -272 22 -429 96 -57 27 -114 49
-128 49 -13 0 -35 -11 -48 -25z"/>
</g>
</svg>
